<?xml version="1.0" standalone="no"?>
<!DOCTYPE svg PUBLIC "-//W3C//DTD SVG 20010904//EN"
 "http://www.w3.org/TR/2001/REC-SVG-20010904/DTD/svg10.dtd">
<svg version="1.0" xmlns="http://www.w3.org/2000/svg"
 width="399.000000pt" height="399.000000pt" viewBox="0 0 399.000000 399.000000"
 preserveAspectRatio="xMidYMid meet">
<metadata>
Created by potrace 1.11, written by Peter Selinger 2001-2013
</metadata>
<g transform="translate(0.000000,399.000000) scale(0.100000,-0.100000)"
fill="#000000" stroke="none">
<path d="M0 3893 c0 -53 2 -94 4 -92 8 10 14 189 5 189 -5 0 -9 -43 -9 -97z"/>
<path d="M38 3931 c-5 -35 -8 -78 -7 -95 0 -30 0 -30 10 -7 5 14 8 57 7 95
l-3 71 -7 -64z"/>
<path d="M68 3928 c-2 -35 0 -67 4 -72 4 -6 8 22 8 62 0 40 -2 72 -4 72 -2 0
-6 -28 -8 -62z"/>
<path d="M100 3980 c0 -5 5 -10 10 -10 6 0 10 5 10 10 0 6 -4 10 -10 10 -5 0
-10 -4 -10 -10z"/>
<path d="M143 3950 c0 -25 2 -35 4 -22 2 12 2 32 0 45 -2 12 -4 2 -4 -23z"/>
<path d="M241 3974 c0 -11 3 -14 6 -6 3 7 2 16 -1 19 -3 4 -6 -2 -5 -13z"/>
<path d="M399 3818 c0 -95 1 -312 2 -483 4 -512 3 -793 -5 -918 -7 -104 -6
-120 9 -130 16 -13 72 -9 300 22 44 5 134 17 200 25 66 9 133 18 148 21 l29 5
-24 -30 c-54 -69 -66 -87 -90 -132 -14 -26 -29 -44 -33 -40 -5 4 -5 1 0 -6 10
-19 -16 -67 -27 -50 -4 7 -8 20 -8 28 0 13 1 13 10 0 12 -19 12 -6 0 45 -6 26
-5 44 2 52 11 14 42 18 34 5 -2 -4 -1 -14 5 -22 6 -11 9 -5 9 22 0 36 0 36
-37 32 -21 -2 -108 -11 -193 -19 -85 -9 -171 -17 -190 -20 -19 -2 -64 -6 -99
-10 -36 -3 -71 -11 -78 -17 -8 -6 -13 -34 -14 -72 -1 -70 -16 -52 -20 24 -1
25 -4 35 -6 23 -2 -13 -8 -23 -13 -23 -4 0 -8 57 -9 128 -1 161 -1 163 -12
127 -5 -16 -9 -61 -8 -100 1 -121 -1 -155 -9 -155 -5 0 -7 58 -5 130 3 86 0
130 -7 130 -11 0 -12 -37 -10 -392 0 -120 -3 -209 -9 -212 -15 -10 -23 48 -15
110 6 54 6 56 -15 49 -12 -4 -21 -2 -21 4 0 18 -18 12 -23 -6 -3 -10 -5 10 -6
45 0 34 -5 62 -11 62 -5 0 -10 -6 -10 -12 0 -9 -3 -8 -9 2 -6 8 -8 17 -5 21 6
11 7 650 0 656 -6 6 -11 -142 -8 -255 0 -30 -3 -50 -9 -47 -5 4 -9 68 -10 143
0 98 -3 128 -10 107 -5 -16 -8 -83 -7 -147 1 -101 4 -117 18 -121 14 -4 17
-14 15 -53 -2 -27 -3 -66 -4 -87 -1 -23 -5 -36 -11 -32 -7 4 -8 36 -4 87 5 60
4 79 -4 74 -8 -5 -12 -40 -12 -96 0 -75 2 -88 15 -84 10 4 15 0 15 -11 0 -11
-5 -15 -15 -11 -8 3 -15 1 -15 -4 0 -6 -5 -10 -10 -10 -8 0 -9 37 -5 113 4 83
3 107 -6 94 -12 -21 -20 -407 -7 -407 8 0 13 74 9 143 -2 20 2 37 7 37 7 0 10
-49 9 -135 -1 -73 1 -131 5 -127 4 4 8 60 9 125 0 70 5 117 11 117 6 0 9 -102
7 -285 -2 -156 0 -288 4 -291 4 -4 7 33 8 82 1 177 8 377 14 382 3 3 5 -20 5
-52 0 -36 4 -55 10 -51 5 3 10 -1 10 -9 0 -9 4 -16 9 -16 8 0 8 -99 0 -260 0
-10 -3 -8 -8 5 -4 11 -7 73 -5 137 1 68 -1 118 -7 118 -5 0 -9 -77 -10 -182
-1 -190 -5 -564 -8 -702 0 -44 -4 -77 -7 -74 -3 3 -5 139 -5 302 1 203 -2 296
-10 296 -5 0 -9 -8 -8 -17 4 -47 -2 -295 -8 -290 -8 9 -8 525 0 534 11 11 7
37 -9 58 -13 18 -14 8 -13 -105 3 -171 -13 -1002 -19 -996 -4 5 -4 306 2 964
0 107 -2 199 -6 205 -4 7 -8 -80 -8 -193 -2 -433 -7 -667 -16 -682 -5 -10 -8
79 -6 228 3 172 1 244 -7 244 -8 0 -11 -213 -11 -749 l0 -748 346 -2 c341 -2
346 -2 351 18 7 26 15 26 31 1 13 -22 62 -28 62 -7 0 8 4 7 10 -3 7 -12 10
-12 10 -1 0 9 8 11 26 7 15 -4 32 -2 40 5 11 9 14 8 15 -7 0 -15 3 -14 11 6
11 25 11 25 15 3 l4 -23 1119 0 c1056 0 1118 1 1123 18 3 9 14 40 24 69 l19
52 13 -35 c18 -50 63 -45 76 9 4 15 14 27 22 27 8 0 11 5 8 12 -10 19 51 -47
63 -68 9 -15 14 -16 36 -6 14 6 26 18 26 27 0 8 4 15 10 15 16 0 22 -45 12
-84 -9 -32 -8 -36 8 -36 10 0 20 10 23 22 5 17 9 19 20 10 18 -15 57 -4 58 17
1 9 0 31 -1 49 -2 31 0 32 19 20 22 -14 55 -2 57 21 1 6 2 17 3 25 1 10 9 12
34 7 18 -5 41 -5 52 -1 11 4 30 4 42 -1 13 -5 25 -4 28 1 4 6 15 10 26 10 11
0 18 -4 14 -10 -3 -5 -13 -6 -23 -3 -14 5 -15 3 -5 -8 17 -17 16 -53 -2 -112
-14 -47 -14 -47 9 -47 20 0 24 6 29 47 3 27 12 66 19 88 12 35 17 40 43 39 17
0 38 -4 48 -8 16 -8 17 16 17 424 l0 433 -122 -7 c-68 -3 -242 -9 -388 -12
-146 -4 -266 -7 -266 -8 -1 0 1 -61 5 -134 3 -72 3 -132 0 -132 -4 0 -22 6
-41 14 -40 17 -146 16 -156 -1 -9 -15 -62 -35 -62 -24 0 5 7 12 16 15 8 3 12
10 9 16 -3 5 3 10 14 10 17 0 20 6 18 38 -1 20 -6 43 -10 50 -5 6 -5 12 0 12
4 0 4 4 -2 8 -15 10 -55 92 -45 92 4 0 13 15 21 33 7 17 18 35 23 39 7 5 5 8
-5 8 -9 0 -19 10 -22 22 -4 12 -9 19 -13 15 -6 -6 -44 53 -44 68 0 3 11 3 25
-1 22 -5 25 -3 25 21 0 36 -17 65 -39 65 -26 0 -33 34 -10 48 11 7 16 18 13
27 -4 10 0 15 10 15 25 0 19 17 -9 24 -15 4 -25 14 -25 24 0 10 -7 27 -15 38
-8 10 -15 26 -15 35 0 9 -9 28 -20 42 -15 18 -17 27 -8 30 10 3 8 9 -4 24 -10
11 -18 23 -18 28 0 4 -8 15 -17 24 -25 23 -45 60 -38 71 11 19 108 11 144 -11
18 -11 35 -18 38 -15 3 2 -2 29 -11 58 -8 30 -22 114 -31 188 -25 218 -58 323
-140 451 -5 9 -32 32 -58 52 -27 21 -44 37 -39 37 5 0 30 -16 56 -36 26 -20
50 -33 53 -30 4 3 17 -3 29 -15 19 -18 31 -20 76 -16 150 15 270 24 433 31 66
3 136 10 154 16 26 7 37 7 42 -2 6 -9 10 -8 15 5 3 10 11 14 18 10 16 -11 67
-12 60 -2 -3 5 2 9 11 9 9 0 13 -4 10 -10 -4 -6 5 -10 20 -10 14 0 24 4 21 8
-3 5 15 6 40 2 28 -4 47 -3 53 4 6 7 31 13 57 14 26 1 51 7 55 13 5 8 8 8 11
-2 3 -8 9 -9 18 -4 23 14 61 12 70 -5 6 -9 10 26 10 98 l0 114 -37 -6 c-21 -3
-67 -8 -103 -11 -61 -5 -210 -23 -255 -30 -46 -7 -186 -22 -275 -30 -62 -5
-183 -19 -345 -40 -60 -8 -130 -17 -155 -20 -25 -3 -72 -9 -105 -14 -33 -5
-63 -7 -67 -5 -3 2 -8 0 -10 -6 -2 -6 -24 -2 -56 10 -29 11 -60 20 -70 20 -9
0 -30 10 -47 21 -16 12 -23 19 -15 17 8 -3 44 -2 80 3 36 4 108 12 160 18 52
6 214 24 360 41 623 72 700 81 795 90 161 17 145 4 145 126 l0 105 -32 -6
c-51 -8 -162 -24 -288 -40 -63 -8 -203 -26 -310 -40 -107 -14 -231 -30 -275
-35 -102 -11 -377 -45 -565 -70 -80 -11 -185 -25 -235 -31 -49 -6 -95 -12
-101 -14 -8 -2 -9 -20 -2 -62 6 -37 6 -70 -1 -93 -5 -19 -12 -47 -15 -62 -4
-19 -18 -32 -49 -47 -57 -28 -183 -28 -242 -1 -22 10 -34 19 -27 19 6 1 12 8
12 17 0 10 -6 14 -15 11 -8 -4 -17 -1 -21 5 -4 7 -3 8 4 4 7 -4 12 -2 12 3 0
6 5 10 11 9 6 -2 14 3 16 10 3 6 -1 12 -7 12 -6 0 -18 6 -25 14 -12 12 -10 14
12 12 15 0 42 -16 62 -35 28 -26 107 -71 125 -71 2 0 3 15 4 34 1 24 -6 39
-23 54 -25 22 -35 50 -14 36 7 -4 9 0 6 12 -3 11 -9 36 -12 56 -4 20 -14 39
-22 42 -8 3 -11 10 -8 16 3 5 -6 15 -20 22 -14 6 -22 14 -17 17 17 12 62 78
56 83 -3 3 3 23 12 44 9 22 16 42 16 46 -1 4 9 15 21 25 24 19 57 62 57 75 0
16 -19 8 -23 -9 -3 -10 -5 1 -6 24 -1 32 -5 43 -21 48 -11 3 -24 3 -30 0 -5
-3 -10 -1 -10 4 0 6 7 11 15 11 20 0 19 17 -2 29 -15 8 -16 13 -6 30 18 28 16
68 -2 75 -8 3 -15 12 -15 21 0 8 -7 15 -15 15 -9 0 -15 9 -15 21 0 18 -2 19
-15 9 -12 -10 -15 -10 -15 4 0 9 -7 16 -15 16 -8 0 -15 6 -15 13 0 8 -4 7 -11
-3 -8 -11 -12 -12 -16 -2 -2 6 -13 12 -24 12 -16 0 -18 -5 -13 -25 4 -15 2
-25 -4 -25 -6 0 -33 11 -60 25 -58 29 -63 30 -56 11 3 -8 -3 -16 -15 -19 -12
-3 -22 -13 -22 -24 -1 -10 -4 -4 -8 12 -4 18 -2 38 5 50 7 11 16 40 19 65 4
25 11 55 17 66 8 18 13 20 34 10 13 -6 26 -23 30 -39 4 -18 20 -37 47 -55 44
-28 56 -32 72 -23 12 6 25 10 65 18 25 4 28 8 19 19 -6 8 -20 14 -30 14 -10 0
-21 4 -24 10 -8 13 38 24 64 15 27 -8 27 10 2 32 -11 9 -18 20 -15 25 3 4 -2
5 -10 2 -11 -4 -16 0 -17 12 0 11 -3 14 -6 7 -2 -7 -12 -13 -21 -13 -14 1 -14
3 3 16 11 8 29 13 40 10 14 -4 12 1 -10 20 -28 24 -35 26 -93 20 -35 -4 -71
-11 -80 -16 -19 -9 -53 -23 -64 -24 -3 -1 -9 -4 -13 -7 -3 -4 -31 -5 -62 -3
-61 3 -125 -21 -137 -52 -6 -17 8 -33 29 -34 6 0 4 -4 -3 -9 -8 -4 -16 -27
-19 -50 -5 -33 -3 -41 10 -41 9 0 19 5 22 10 8 13 35 13 35 1 0 -5 -9 -13 -20
-16 -30 -10 -24 -28 8 -23 16 2 34 -2 40 -9 16 -17 15 -20 -9 -26 -12 -3 -18
-10 -14 -16 3 -6 0 -11 -7 -11 -19 0 -38 -47 -38 -92 0 -36 12 -72 44 -127 8
-13 12 -31 8 -40 -4 -11 -8 -6 -14 16 -8 31 -28 55 -28 33 0 -21 42 -100 54
-100 6 0 22 -10 36 -23 14 -13 34 -28 45 -35 18 -10 18 -11 3 -12 -21 0 -23
-11 -5 -29 10 -10 8 -11 -7 -5 -16 6 -18 4 -13 -10 4 -10 7 -28 7 -41 0 -21 4
-23 53 -21 48 1 52 -1 52 -21 0 -13 -4 -23 -9 -22 -15 1 -25 -25 -15 -38 6 -6
9 -20 6 -30 -4 -14 -5 -13 -6 5 -1 29 -21 18 -21 -12 0 -23 -29 -71 -30 -49 0
7 -10 23 -22 37 -37 40 -47 54 -42 59 3 2 2 17 -2 33 -7 27 -7 27 -16 5 -8
-24 -2 -63 16 -96 11 -20 13 -27 15 -46 0 -6 8 -9 16 -5 17 6 19 -7 5 -34 -5
-10 -7 -33 -3 -51 5 -28 7 -30 14 -14 7 20 8 20 9 0 1 -18 2 -17 15 5 12 22
11 28 -3 45 -11 13 -7 11 11 -4 15 -14 27 -29 27 -35 0 -6 -4 -5 -8 2 -6 9
-12 5 -20 -13 -16 -35 -15 -44 3 -21 29 39 18 57 251 -404 107 -214 142 -292
138 -310 -4 -17 -3 -21 3 -12 7 9 14 1 26 -28 13 -34 13 -40 2 -30 -12 10 -15
9 -15 -4 0 -9 5 -16 11 -16 6 0 9 -7 6 -15 -4 -8 -2 -17 3 -20 13 -8 13 -55 1
-55 -5 0 -20 29 -32 64 -17 48 -29 66 -46 70 -15 4 -28 22 -41 59 -11 28 -34
83 -51 121 -26 56 -29 72 -19 85 10 13 10 14 -2 4 -11 -11 -27 13 -93 140 -44
83 -80 158 -80 165 0 6 -4 12 -9 12 -4 0 -21 26 -38 58 -17 31 -39 73 -50 92
-11 19 -20 44 -20 55 0 15 -3 16 -9 7 -7 -11 -9 -10 -14 3 -4 9 -3 13 3 10 6
-3 10 -1 10 4 0 6 -6 11 -13 11 -8 0 -20 12 -28 28 -20 41 -22 49 -6 29 8 -10
17 -15 20 -10 8 13 -4 63 -14 57 -5 -3 -9 1 -10 8 -1 7 -5 2 -9 -12 -5 -15 -8
-18 -9 -9 -2 35 -81 34 -133 -2 -14 -11 -30 -19 -35 -19 -4 0 -1 5 7 11 11 8
8 9 -15 4 -16 -4 -43 -8 -60 -10 -16 -2 -68 -9 -115 -15 -47 -6 -141 -17 -210
-26 -69 -8 -134 -16 -145 -18 -11 -2 -45 -6 -75 -10 -30 -4 -104 -13 -165 -21
-85 -11 -112 -11 -123 -2 -13 10 -14 117 -8 769 l7 758 -56 0 -55 0 -1 -172z
m1509 -413 c-3 -3 -9 2 -12 12 -6 14 -5 15 5 6 7 -7 10 -15 7 -18z m-248 -109
c0 -2 -11 -11 -25 -20 -14 -9 -25 -13 -25 -8 0 5 10 14 23 20 27 13 27 13 27
8z m204 -142 c-18 -15 -18 -15 11 -10 28 5 28 5 7 -6 -17 -9 -26 -8 -35 1 -9
9 -9 14 3 21 25 16 35 11 14 -6z m87 -106 c8 -12 10 -23 9 -45 -1 -5 14 -10
31 -13 36 -5 44 -17 29 -40 -7 -11 -12 -12 -17 -3 -12 16 -45 20 -51 5 -2 -8
5 -16 17 -19 25 -6 18 -23 -11 -23 -17 0 -20 5 -16 35 2 19 0 35 -4 35 -4 0
-8 -7 -8 -15 0 -8 -7 -15 -15 -15 -11 0 -15 11 -15 41 0 23 -4 38 -10 34 -5
-3 -18 0 -28 6 -15 10 -17 15 -8 25 14 17 86 11 97 -8z m99 -39 c0 -6 -4 -7
-10 -4 -5 3 -10 11 -10 16 0 6 5 7 10 4 6 -3 10 -11 10 -16z m-365 -19 c-3 -5
-12 -10 -18 -10 -7 0 -6 4 3 10 19 12 23 12 15 0z m2 -26 c-3 -3 -12 -4 -19
-1 -8 3 -5 6 6 6 11 1 17 -2 13 -5z m203 -4 c0 -5 -5 -10 -11 -10 -5 0 -7 5
-4 10 3 6 8 10 11 10 2 0 4 -4 4 -10z m-169 -26 c10 -13 10 -20 -4 -43 -9 -16
-13 -32 -9 -36 4 -4 -2 -3 -14 3 -36 19 -45 37 -34 66 11 29 40 35 61 10z
m-26 -204 c3 -5 1 -10 -4 -10 -6 0 -11 5 -11 10 0 6 2 10 4 10 3 0 8 -4 11
-10z m540 -164 c14 -30 40 -124 57 -208 30 -146 31 -164 32 -405 1 -202 -2
-255 -13 -265 -11 -11 -13 -6 -8 31 4 29 2 40 -4 30 -5 -7 -9 -24 -9 -36 0
-12 -5 -25 -10 -28 -16 -10 -22 19 -11 48 7 18 7 27 0 27 -5 0 -9 19 -9 43 2
88 -19 434 -29 482 -6 28 -12 106 -14 175 -2 69 -7 133 -12 143 -4 9 -5 17 -1
17 3 0 17 -25 31 -54z m-385 -26 c11 -7 5 -8 -20 -4 -43 8 -51 14 -19 14 13 0
31 -5 39 -10z m-470 -15 c0 -8 -79 -55 -92 -55 -8 0 -30 -12 -51 -26 -41 -28
-107 -58 -107 -49 0 3 17 13 38 22 20 8 50 25 66 37 17 11 55 33 85 48 66 31
61 29 61 23z m445 -95 c8 -13 -5 -13 -25 0 -13 8 -13 10 2 10 9 0 20 -4 23
-10z m-941 -233 c-7 -18 -44 -24 -44 -7 0 6 9 10 21 10 16 0 20 4 14 18 -4 12
-3 14 5 6 6 -6 8 -18 4 -27z m-437 -44 c-3 -10 -5 -4 -5 12 0 17 2 24 5 18 2
-7 2 -21 0 -30z m150 15 c-3 -8 -6 -5 -6 6 -1 11 2 17 5 13 3 -3 4 -12 1 -19z
m293 -39 c-7 -16 -10 -32 -6 -36 3 -3 6 0 7 8 0 8 4 4 9 -8 6 -15 3 -42 -10
-85 -10 -35 -21 -84 -25 -110 -7 -51 -19 -62 -29 -25 -13 48 -7 89 14 94 21 6
25 36 20 152 -1 29 2 41 9 37 7 -4 11 2 12 16 1 18 2 19 6 5 3 -10 -1 -32 -7
-48z m-780 41 c0 -5 -4 -10 -10 -10 -5 0 -10 5 -10 10 0 6 5 10 10 10 6 0 10
-4 10 -10z m372 -27 c-3 -16 -7 -22 -10 -15 -4 13 4 42 11 42 2 0 2 -12 -1
-27z m78 -5 c0 -21 -3 -29 -10 -22 -5 5 -7 19 -4 32 9 31 14 27 14 -10z m-278
-217 c-2 -113 -7 -201 -12 -201 -7 0 -7 136 0 415 0 6 4 5 8 -2 4 -6 6 -101 4
-212z m38 205 c0 -8 -4 -18 -10 -21 -5 -3 -10 3 -10 14 0 12 5 21 10 21 6 0
10 -6 10 -14z m210 4 c0 -5 -5 -10 -11 -10 -5 0 -7 5 -4 10 3 6 8 10 11 10 2
0 4 -4 4 -10z m0 -45 c0 -8 -4 -15 -10 -15 -5 0 -10 7 -10 15 0 8 5 15 10 15
6 0 10 -7 10 -15z m187 -7 c-3 -8 -6 -5 -6 6 -1 11 2 17 5 13 3 -3 4 -12 1
-19z m-397 2 c0 -5 -4 -10 -10 -10 -5 0 -10 5 -10 10 0 6 5 10 10 10 6 0 10
-4 10 -10z m424 -5 c3 -8 1 -15 -4 -15 -6 0 -10 7 -10 15 0 8 2 15 4 15 2 0 6
-7 10 -15z m101 5 c3 -5 1 -10 -4 -10 -6 0 -11 5 -11 10 0 6 2 10 4 10 3 0 8
-4 11 -10z m-78 -32 c-3 -7 -5 -2 -5 12 0 14 2 19 5 13 2 -7 2 -19 0 -25z
m-167 -3 c0 -14 -4 -25 -10 -25 -5 0 -10 11 -10 25 0 14 5 25 10 25 6 0 10
-11 10 -25z m-43 -37 c-3 -7 -5 -2 -5 12 0 14 2 19 5 13 2 -7 2 -19 0 -25z
m-237 -12 c0 -37 -16 -58 -22 -29 -5 25 3 63 13 63 5 0 9 -15 9 -34z m307 12
c-3 -8 -6 -5 -6 6 -1 11 2 17 5 13 3 -3 4 -12 1 -19z m30 -10 c-3 -7 -5 -2 -5
12 0 14 2 19 5 13 2 -7 2 -19 0 -25z m-127 12 c0 -5 -4 -10 -10 -10 -5 0 -10
5 -10 10 0 6 5 10 10 10 6 0 10 -4 10 -10z m70 -10 c0 -5 -4 -10 -10 -10 -5 0
-10 5 -10 10 0 6 5 10 10 10 6 0 10 -4 10 -10z m-256 -282 c-2 -155 -7 -285
-11 -289 -4 -4 -7 27 -6 69 1 42 3 173 4 290 2 116 6 212 10 212 4 0 5 -127 3
-282z m143 225 c-3 -10 -5 -2 -5 17 0 19 2 27 5 18 2 -10 2 -26 0 -35z m30 5
c-3 -8 -6 -5 -6 6 -1 11 2 17 5 13 3 -3 4 -12 1 -19z m208 -24 c9 -15 12 -23
6 -20 -6 4 -11 0 -12 -11 0 -14 -2 -15 -6 -3 -3 8 -10 18 -15 21 -7 5 -1 39 7
39 1 0 10 -12 20 -26z m-415 -276 c-2 -328 -5 -426 -14 -436 -4 -3 -5 131 -2
298 2 168 5 334 5 369 1 35 4 62 7 58 3 -3 5 -133 4 -289z m-100 210 c0 -29
-1 -62 -1 -73 0 -134 -2 -165 -9 -170 -6 -4 -9 55 -9 145 0 91 4 150 10 150 6
0 10 -24 9 -52z m167 -10 c-2 -13 -4 -3 -4 22 0 25 2 35 4 23 2 -13 2 -33 0
-45z m43 -18 c0 -44 -4 -80 -9 -80 -4 0 -7 17 -6 38 1 20 3 56 4 80 2 74 11
45 11 -38z m30 35 c0 -25 -3 -45 -8 -45 -4 0 -6 20 -4 45 2 25 6 45 8 45 2 0
4 -20 4 -45z m55 25 c8 0 17 -5 21 -11 4 -7 0 -9 -14 -5 -14 5 -24 1 -31 -11
-9 -16 -10 -16 -11 -1 0 24 13 54 18 40 2 -7 10 -12 17 -12z m124 -17 c-1 -63
-15 -80 -15 -19 0 31 4 56 8 56 4 0 8 -17 7 -37z m28 -85 c-2 -24 -4 -5 -4 42
0 47 2 66 4 43 2 -24 2 -62 0 -85z m-62 72 c0 -16 -3 -30 -7 -30 -5 0 -8 14
-8 30 0 17 3 30 8 30 4 0 7 -13 7 -30z m241 -27 c8 -3 14 -15 13 -27 0 -20 -1
-20 -10 2 -5 13 -13 20 -19 17 -6 -4 -9 7 -9 27 1 24 3 27 6 10 3 -13 11 -26
19 -29z m-39 15 c-3 -8 -6 -5 -6 6 -1 11 2 17 5 13 3 -3 4 -12 1 -19z m-310
-75 c-2 -16 -4 -5 -4 22 0 28 2 40 4 28 2 -13 2 -35 0 -50z m32 -105 c0 -90
-4 -152 -8 -138 -10 34 -6 300 4 300 3 0 5 -73 4 -162z m174 100 c3 -33 2 -58
-4 -58 -5 0 -9 28 -9 62 0 75 5 73 13 -4z m34 30 c-3 -7 -5 -2 -5 12 0 14 2
19 5 13 2 -7 2 -19 0 -25z m-260 0 c-3 -8 -6 -5 -6 6 -1 11 2 17 5 13 3 -3 4
-12 1 -19z m-87 2 c0 -5 -4 -10 -10 -10 -5 0 -10 5 -10 10 0 6 5 10 10 10 6 0
10 -4 10 -10z m459 -49 c1 -35 -5 -22 -12 24 -5 28 -4 34 3 20 5 -11 9 -31 9
-44z m-389 23 c0 -8 -5 -12 -10 -9 -6 4 -8 11 -5 16 9 14 15 11 15 -7z m277
-16 c-3 -8 -6 -5 -6 6 -1 11 2 17 5 13 3 -3 4 -12 1 -19z m-487 -43 c-7 -45
-7 -46 -9 -13 -1 32 8 74 14 66 1 -2 -1 -25 -5 -53z m140 5 c0 -27 -4 -50 -10
-50 -5 0 -10 23 -10 50 0 28 5 50 10 50 6 0 10 -22 10 -50z m245 40 c3 -5 -1
-10 -10 -10 -9 0 -13 5 -10 10 3 6 8 10 10 10 2 0 7 -4 10 -10z m-218 -247
c-1 -43 -3 -8 -3 77 0 85 2 120 3 78 2 -43 2 -113 0 -155z m43 217 c0 -5 -4
-10 -10 -10 -5 0 -10 5 -10 10 0 6 5 10 10 10 6 0 10 -4 10 -10z m29 -224 c-4
-48 -6 -21 -6 84 0 119 2 135 6 71 3 -46 3 -115 0 -155z m111 224 c0 -5 -4
-10 -10 -10 -5 0 -10 5 -10 10 0 6 5 10 10 10 6 0 10 -4 10 -10z m67 -57 c-2
-16 -4 -5 -4 22 0 28 2 40 4 28 2 -13 2 -35 0 -50z m180 0 c-4 -17 -4 -17 -12
0 -4 9 -4 25 0 35 8 16 8 16 12 0 3 -10 3 -26 0 -35z m-290 5 c-3 -8 -6 -5 -6
6 -1 11 2 17 5 13 3 -3 4 -12 1 -19z m43 12 c0 -5 -4 -10 -10 -10 -5 0 -10 5
-10 10 0 6 5 10 10 10 6 0 10 -4 10 -10z m-310 -15 c0 -8 -4 -15 -10 -15 -5 0
-10 7 -10 15 0 8 5 15 10 15 6 0 10 -7 10 -15z m2023 -37 c-3 -18 -12 -45 -20
-60 -7 -16 -11 -28 -8 -28 4 0 -3 -14 -15 -30 -12 -17 -25 -28 -30 -25 -5 3
-10 -1 -13 -7 -2 -7 -8 -10 -12 -6 -4 4 2 17 14 29 13 15 19 30 16 43 -6 19
-5 19 7 4 13 -15 16 -12 31 23 9 21 17 50 17 64 0 14 4 25 10 25 5 0 7 -14 3
-32z m-1716 -25 c-4 -17 -4 -17 -12 0 -4 9 -4 25 0 35 8 16 8 16 12 0 3 -10 3
-26 0 -35z m1684 10 c-3 -20 -12 -38 -19 -39 -7 -1 -8 0 -2 3 5 2 10 20 10 39
0 19 4 34 8 34 5 0 6 -17 3 -37z m-1895 -10 c-11 -11 -19 6 -11 24 8 17 8 17
12 0 3 -10 2 -21 -1 -24z m-132 -43 c-1 -14 -3 -65 -4 -115 -2 -65 -5 -82 -10
-60 -12 47 -11 153 1 161 6 4 7 10 2 15 -5 5 -7 24 -4 42 4 30 5 31 11 7 3
-14 5 -36 4 -50z m36 56 c0 -8 -4 -18 -10 -21 -5 -3 -10 3 -10 14 0 12 5 21
10 21 6 0 10 -6 10 -14z m267 -68 c-2 -18 -4 -6 -4 27 0 33 2 48 4 33 2 -15 2
-42 0 -60z m1700 60 c-3 -8 -6 -5 -6 6 -1 11 2 17 5 13 3 -3 4 -12 1 -19z
m-1587 -4 c0 -8 -5 -12 -10 -9 -6 4 -8 11 -5 16 9 14 15 11 15 -7z m1420 6 c0
-5 -4 -10 -10 -10 -5 0 -10 5 -10 10 0 6 5 10 10 10 6 0 10 -4 10 -10z m-1904
-26 c-3 -7 -6 -119 -7 -249 -1 -129 -5 -235 -10 -235 -8 0 -10 488 -2 503 7
13 25 -4 19 -19z m444 -5 c0 -11 -4 -18 -10 -14 -5 3 -7 12 -3 20 7 21 13 19
13 -6z m-420 -221 c-4 -182 -5 -192 -10 -94 -6 131 -1 324 8 309 4 -6 5 -103
2 -215z m80 212 c0 -5 -4 -10 -10 -10 -5 0 -10 5 -10 10 0 6 5 10 10 10 6 0
10 -4 10 -10z m1808 -15 c-3 -3 -9 2 -12 12 -6 14 -5 15 5 6 7 -7 10 -15 7
-18z m-1428 -7 c0 -16 -3 -19 -11 -11 -6 6 -8 16 -5 22 11 17 16 13 16 -11z
m57 0 c-3 -8 -6 -5 -6 6 -1 11 2 17 5 13 3 -3 4 -12 1 -19z m-127 -4 c0 -8 -4
-12 -10 -9 -5 3 -10 10 -10 16 0 5 5 9 10 9 6 0 10 -7 10 -16z m635 6 l30 -8
-28 -1 c-15 0 -30 -8 -34 -17 -5 -15 -7 -15 -15 0 -7 12 -13 14 -21 8 -7 -6
-29 -7 -52 -2 -44 8 -39 12 15 11 29 0 31 1 15 8 -16 8 -12 9 20 9 22 0 54 -4
70 -8z m-220 -7 c-46 -10 -51 -13 -35 -23 12 -8 10 -10 -7 -10 -13 0 -23 -4
-23 -10 0 -5 5 -10 11 -10 8 0 8 -4 1 -13 -15 -17 -25 -64 -26 -114 0 -42 -9
-55 -20 -30 -3 6 -3 0 0 -14 3 -15 1 -30 -5 -33 -6 -4 -11 -22 -11 -41 0 -19
-5 -37 -11 -41 -7 -4 -9 -21 -5 -44 4 -25 2 -40 -6 -42 -7 -3 -9 -16 -4 -41 5
-27 12 -37 26 -37 10 0 21 6 24 13 5 10 7 10 12 0 3 -7 10 -13 16 -13 13 0 38
26 38 39 0 6 7 11 15 11 8 0 15 -7 15 -15 0 -8 -7 -15 -15 -15 -19 0 -19 -9
-1 -24 15 -13 10 -90 -6 -80 -5 3 -6 19 -3 35 4 18 3 29 -4 29 -6 0 -11 -6
-12 -12 0 -10 -2 -10 -6 0 -10 26 -23 10 -23 -28 0 -40 15 -55 23 -22 2 9 3 7
2 -6 -1 -12 2 -25 7 -28 4 -3 5 -10 2 -16 -4 -7 -9 -6 -14 2 -5 7 -9 0 -12
-19 -2 -17 -1 -31 4 -31 4 0 8 5 8 11 0 5 4 8 10 4 10 -6 3 -35 -8 -33 -31 4
-41 -4 -40 -32 1 -20 6 -30 17 -31 13 -1 13 -2 -1 -6 -20 -5 -24 -32 -5 -34 6
-1 -3 -5 -21 -9 -44 -10 -72 -3 -65 17 5 12 1 14 -15 8 -13 -4 -22 -2 -22 4 0
6 -6 11 -14 11 -10 0 -14 25 -19 99 -6 115 3 318 13 301 6 -10 12 26 25 155
18 176 23 191 77 207 33 10 41 9 49 -3 7 -11 9 -11 9 4 0 13 8 17 38 16 20 -1
28 -3 17 -6z m-726 -40 c-1 -21 -5 -49 -9 -63 -6 -19 -8 -9 -9 38 -1 35 3 62
9 62 6 0 10 -17 9 -37z m408 15 c-3 -8 -6 -5 -6 6 -1 11 2 17 5 13 3 -3 4 -12
1 -19z m1543 12 c0 -5 -2 -10 -4 -10 -2 0 -12 -3 -22 -7 -16 -6 -17 -5 -4 10
17 19 30 22 30 7z m-1609 -67 c-4 -45 -4 -46 -13 -20 -10 29 -3 81 10 73 4 -2
5 -26 3 -53z m36 5 c-2 -13 -4 -5 -4 17 -1 22 1 32 4 23 2 -10 2 -28 0 -40z
m-78 -5 c-1 -53 -6 -49 -11 10 -2 20 0 37 4 37 4 0 8 -21 7 -47z m571 43 c0
-3 -4 -8 -10 -11 -5 -3 -10 -1 -10 4 0 6 5 11 10 11 6 0 10 -2 10 -4z m-700
-21 c0 -8 -4 -15 -10 -15 -5 0 -10 7 -10 15 0 8 5 15 10 15 6 0 10 -7 10 -15z
m100 5 c0 -5 -2 -10 -4 -10 -3 0 -8 5 -11 10 -3 6 -1 10 4 10 6 0 11 -4 11
-10z m127 -22 c-3 -7 -5 -2 -5 12 0 14 2 19 5 13 2 -7 2 -19 0 -25z m20 0 c-3
-7 -5 -2 -5 12 0 14 2 19 5 13 2 -7 2 -19 0 -25z m503 28 c0 -2 -7 -9 -15 -16
-13 -11 -14 -10 -9 4 5 14 24 23 24 12z m954 -8 c-5 -7 -2 -9 9 -5 11 4 14 2
10 -9 -4 -11 -9 -12 -19 -3 -12 10 -11 29 2 29 3 0 2 -5 -2 -12z m-1634 -43
c0 -19 -4 -35 -8 -35 -6 0 -9 38 -4 63 5 20 12 3 12 -28z m490 15 c0 -5 -2
-10 -4 -10 -3 0 -8 5 -11 10 -3 6 -1 10 4 10 6 0 11 -4 11 -10z m-630 -10 c0
-5 -4 -10 -10 -10 -5 0 -10 5 -10 10 0 6 5 10 10 10 6 0 10 -4 10 -10z m1827
-22 c-3 -8 -6 -5 -6 6 -1 11 2 17 5 13 3 -3 4 -12 1 -19z m-1840 -40 c-3 -7
-5 -2 -5 12 0 14 2 19 5 13 2 -7 2 -19 0 -25z m83 28 c0 -3 -4 -8 -10 -11 -5
-3 -10 -1 -10 4 0 6 5 11 10 11 6 0 10 -2 10 -4z m29 -43 c-1 -53 -6 -49 -11
10 -2 20 0 37 4 37 4 0 8 -21 7 -47z m68 25 c-3 -8 -6 -5 -6 6 -1 11 2 17 5
13 3 -3 4 -12 1 -19z m110 -40 c-2 -13 -4 -3 -4 22 0 25 2 35 4 23 2 -13 2
-33 0 -45z m-320 -5 c-3 -10 -5 -2 -5 17 0 19 2 27 5 18 2 -10 2 -26 0 -35z
m1887 -2 c-2 -2 -10 4 -18 12 -12 11 -13 16 -3 20 11 4 29 -23 21 -32z m-1604
19 c0 -5 -4 -10 -10 -10 -5 0 -10 5 -10 10 0 6 5 10 10 10 6 0 10 -4 10 -10z
m80 -22 c0 -5 -4 -8 -10 -8 -5 0 -10 10 -10 23 0 18 2 19 10 7 5 -8 10 -18 10
-22z m-150 12 c0 -5 -5 -10 -11 -10 -5 0 -7 5 -4 10 3 6 8 10 11 10 2 0 4 -4
4 -10z m-113 -52 c-3 -7 -5 -2 -5 12 0 14 2 19 5 13 2 -7 2 -19 0 -25z m140
-20 c-2 -13 -4 -5 -4 17 -1 22 1 32 4 23 2 -10 2 -28 0 -40z m190 20 c-3 -7
-5 -2 -5 12 0 14 2 19 5 13 2 -7 2 -19 0 -25z m-500 0 c-3 -8 -6 -5 -6 6 -1
11 2 17 5 13 3 -3 4 -12 1 -19z m280 -10 c-3 -8 -6 -5 -6 6 -1 11 2 17 5 13 3
-3 4 -12 1 -19z m1663 12 c0 -5 -2 -10 -4 -10 -3 0 -8 5 -11 10 -3 6 -1 10 4
10 6 0 11 -4 11 -10z m-1973 -57 c-3 -10 -5 -2 -5 17 0 19 2 27 5 18 2 -10 2
-26 0 -35z m170 15 c-3 -8 -6 -5 -6 6 -1 11 2 17 5 13 3 -3 4 -12 1 -19z m72
-10 c-1 -31 -1 -31 -8 -8 -5 14 -6 28 -4 33 9 15 13 6 12 -25z m1750 -15 l15
-41 64 -4 c78 -5 82 -11 99 -128 30 -209 35 -251 40 -345 l5 -100 -149 -4
c-81 -2 -165 -5 -186 -5 l-38 -1 -6 158 c-3 103 -1 157 5 157 6 0 12 -5 14
-12 2 -6 18 -11 36 -11 37 0 42 -14 10 -27 l-23 -9 23 0 c12 -1 22 4 22 10 0
5 4 7 10 4 14 -9 -1 27 -18 45 -9 8 -29 13 -48 11 -19 -1 -34 -1 -35 1 0 2 -4
59 -8 126 -6 89 -12 127 -22 133 -8 5 -9 9 -3 9 6 0 14 -3 18 -7 10 -10 39
-13 51 -4 5 4 35 3 65 -2 30 -5 50 -12 43 -14 -7 -2 -10 -10 -7 -18 3 -7 1
-16 -5 -20 -17 -10 -13 -35 3 -29 8 3 12 12 9 20 -3 8 -1 14 4 14 11 0 15 55
7 83 -6 20 -30 23 -37 5 -2 -7 -7 -10 -11 -7 -11 10 13 61 27 57 6 -3 18 -23
26 -45z m-1862 -40 c-2 -16 -4 -3 -4 27 0 30 2 43 4 28 2 -16 2 -40 0 -55z
m-27 57 c0 -5 -2 -10 -4 -10 -3 0 -8 5 -11 10 -3 6 -1 10 4 10 6 0 11 -4 11
-10z m927 -77 c-2 -1 -11 3 -20 10 -11 8 -14 21 -10 42 l6 29 14 -38 c7 -22
12 -41 10 -43z m-690 20 c-3 -10 -5 -2 -5 17 0 19 2 27 5 18 2 -10 2 -26 0
-35z m-481 -36 c-6 -44 -6 -44 -15 -23 -9 24 -2 68 10 60 5 -3 7 -19 5 -37z
m383 6 c0 -25 -1 -25 -8 -8 -5 11 -7 23 -4 28 8 14 13 7 12 -20z m-42 -20 c-3
-10 -5 -4 -5 12 0 17 2 24 5 18 2 -7 2 -21 0 -30z m823 15 c0 -5 4 -7 9 -4 4
3 11 -24 15 -59 4 -36 9 -72 13 -82 4 -10 3 -14 -5 -9 -7 4 -9 -4 -5 -28 3
-18 1 -36 -3 -39 -5 -3 -10 28 -10 69 -2 82 -13 103 -50 99 -20 -2 -22 0 -13
12 7 7 9 16 6 20 -11 11 13 42 28 37 8 -4 15 -10 15 -16z m-1020 -3 c0 -8 -4
-15 -10 -15 -5 0 -10 7 -10 15 0 8 5 15 10 15 6 0 10 -7 10 -15z m17 -118 c-2
-23 -3 -1 -3 48 0 50 1 68 3 42 2 -26 2 -67 0 -90z m150 91 c-3 -7 -5 -2 -5
12 0 14 2 19 5 13 2 -7 2 -19 0 -25z m350 -25 c-3 -10 -5 -4 -5 12 0 17 2 24
5 18 2 -7 2 -21 0 -30z m-657 -50 c0 -57 -5 -53 -14 11 -5 33 -4 46 3 41 6 -3
11 -27 11 -52z m97 -25 c-2 -18 -4 -6 -4 27 0 33 2 48 4 33 2 -15 2 -42 0 -60z
m170 60 c-3 -8 -6 -5 -6 6 -1 11 2 17 5 13 3 -3 4 -12 1 -19z m70 -70 c-2 -18
-4 -4 -4 32 0 36 2 50 4 33 2 -18 2 -48 0 -65z m823 68 c0 -2 -7 -6 -15 -10
-8 -3 -15 -1 -15 4 0 6 7 10 15 10 8 0 15 -2 15 -4z m-1093 -28 c-3 -8 -6 -5
-6 6 -1 11 2 17 5 13 3 -3 4 -12 1 -19z m60 -20 c-3 -8 -6 -5 -6 6 -1 11 2 17
5 13 3 -3 4 -12 1 -19z m253 -3 c0 -14 -4 -25 -9 -25 -4 0 -6 11 -3 25 2 14 6
25 8 25 2 0 4 -11 4 -25z m2250 -62 c0 -7 -9 -13 -20 -13 -17 0 -20 7 -20 48
l1 47 19 -35 c11 -19 19 -41 20 -47z m-2329 16 c-5 -13 -10 -19 -10 -12 -1 15
10 45 15 40 3 -2 0 -15 -5 -28z m776 9 c-3 -8 -6 -5 -6 6 -1 11 2 17 5 13 3
-3 4 -12 1 -19z m-460 -20 c-3 -7 -5 -2 -5 12 0 14 2 19 5 13 2 -7 2 -19 0
-25z m-620 -30 c-2 -13 -4 -5 -4 17 -1 22 1 32 4 23 2 -10 2 -28 0 -40z m130
20 c-3 -8 -6 -5 -6 6 -1 11 2 17 5 13 3 -3 4 -12 1 -19z m846 -45 c4 -5 -5
-20 -19 -32 -20 -18 -28 -20 -40 -10 -16 13 -19 49 -4 49 6 0 10 9 10 20 0 11
5 20 11 20 6 0 9 -9 6 -20 -3 -11 -1 -23 4 -26 5 -3 9 12 10 33 l1 38 7 -31
c4 -17 11 -35 14 -41z m122 28 c-7 -31 -25 -34 -25 -5 0 8 5 12 10 9 6 -3 10
4 10 16 0 12 3 20 6 16 3 -3 3 -19 -1 -36z m-715 19 c0 -5 -4 -10 -10 -10 -5
0 -10 5 -10 10 0 6 5 10 10 10 6 0 10 -4 10 -10z m-283 -32 c-3 -8 -6 -5 -6 6
-1 11 2 17 5 13 3 -3 4 -12 1 -19z m170 0 c-3 -8 -6 -5 -6 6 -1 11 2 17 5 13
3 -3 4 -12 1 -19z m790 -10 c-3 -7 -5 -2 -5 12 0 14 2 19 5 13 2 -7 2 -19 0
-25z m-1129 -93 c-1 -103 -6 -88 -10 32 -2 44 0 76 4 70 4 -7 7 -52 6 -102z
m377 105 c3 -5 1 -10 -4 -10 -6 0 -11 5 -11 10 0 6 2 10 4 10 3 0 8 -4 11 -10z
m322 -32 c-3 -8 -6 -5 -6 6 -1 11 2 17 5 13 3 -3 4 -12 1 -19z m30 -40 c-2
-13 -4 -3 -4 22 0 25 2 35 4 23 2 -13 2 -33 0 -45z m553 52 c0 -5 -7 -10 -15
-10 -8 0 -15 -5 -15 -12 0 -6 -3 -8 -7 -4 -5 4 1 14 11 22 23 17 26 17 26 4z
m-119 -33 c-10 -9 -11 -8 -5 6 3 10 9 15 12 12 3 -3 0 -11 -7 -18z m-101 -16
c0 -6 -4 -13 -10 -16 -5 -3 -10 1 -10 9 0 9 5 16 10 16 6 0 10 -4 10 -9z
m-750 -11 c0 -5 -4 -10 -10 -10 -5 0 -10 5 -10 10 0 6 5 10 10 10 6 0 10 -4
10 -10z m-253 -42 c-3 -7 -5 -2 -5 12 0 14 2 19 5 13 2 -7 2 -19 0 -25z m110
-30 c-2 -13 -4 -3 -4 22 0 25 2 35 4 23 2 -13 2 -33 0 -45z m560 -5 c-3 -10
-5 -2 -5 17 0 19 2 27 5 18 2 -10 2 -26 0 -35z m429 26 c23 -25 29 -80 8 -72
-8 3 -14 11 -14 19 0 8 -4 14 -9 14 -5 0 -7 9 -4 19 4 16 1 19 -16 14 -17 -4
-20 -2 -15 11 8 22 27 20 50 -5z m-429 -81 c-3 -8 -6 -5 -6 6 -1 11 2 17 5 13
3 -3 4 -12 1 -19z m283 -48 c0 -5 -5 -10 -11 -10 -5 0 -7 5 -4 10 3 6 8 10 11
10 2 0 4 -4 4 -10z m-980 -4 c0 -3 -4 -8 -10 -11 -5 -3 -10 -1 -10 4 0 6 5 11
10 11 6 0 10 -2 10 -4z m1220 -6 c0 -5 -2 -10 -4 -10 -3 0 -8 5 -11 10 -3 6
-1 10 4 10 6 0 11 -4 11 -10z m2009 -9 c28 -10 52 -16 55 -13 3 2 34 -24 69
-60 45 -45 66 -75 69 -97 2 -17 2 -31 0 -31 -3 0 -29 24 -58 54 -28 30 -55 52
-58 49 -3 -4 -6 -2 -6 4 0 5 -27 18 -60 28 -34 10 -63 22 -66 27 -8 13 -102
10 -106 -4 -3 -7 -7 -5 -11 6 -5 13 -1 19 13 23 11 3 20 9 20 14 0 4 17 10 38
12 20 2 40 4 44 5 4 1 30 -6 57 -17z m-1919 -33 c0 -12 -13 -9 -32 6 -29 21
-22 40 7 19 13 -10 25 -21 25 -25z m-610 -8 c0 -5 -5 -10 -11 -10 -5 0 -7 5
-4 10 3 6 8 10 11 10 2 0 4 -4 4 -10z m712 -51 c36 -23 46 -34 36 -40 -20 -13
-7 -11 45 7 31 10 52 13 60 7 6 -6 46 -20 87 -33 76 -23 123 -59 159 -121 16
-27 22 -81 9 -77 -5 2 -9 8 -9 13 0 6 -7 17 -15 26 -8 9 -11 18 -8 22 8 7 -57
66 -73 67 -16 0 -17 20 -1 20 6 0 3 6 -7 14 -13 9 -25 11 -36 5 -9 -4 -19 -6
-22 -3 -3 3 -26 7 -51 8 -25 2 -52 8 -59 14 -9 8 -19 5 -37 -8 -20 -16 -22
-20 -7 -20 25 0 21 -14 -14 -49 -21 -22 -29 -37 -24 -50 5 -16 -5 -27 -47 -54
-29 -19 -57 -32 -62 -29 -9 5 -3 97 9 125 11 25 -39 23 -63 -3 -20 -22 -31
-16 -45 23 -7 19 8 24 19 6 8 -14 54 -2 71 19 7 9 13 25 13 36 0 14 5 17 21
13 15 -4 19 -2 15 9 -4 9 1 14 15 14 18 0 19 1 3 25 -9 14 -25 25 -35 25 -11
0 -19 5 -19 10 0 17 22 11 72 -21z m2068 -236 c0 -23 -19 -14 -35 17 -21 40
-19 43 10 18 14 -12 25 -28 25 -35z m-2377 32 c-3 -9 -8 -14 -10 -11 -3 3 -2
9 2 15 9 16 15 13 8 -4z m2427 -81 c17 -26 20 -38 11 -47 -8 -8 -11 -7 -11 4
0 8 -9 25 -21 37 -11 12 -17 27 -14 32 9 15 11 13 35 -26z m-2146 -39 c-4 -8
-10 -15 -15 -15 -5 0 -9 7 -9 15 0 8 7 15 15 15 9 0 12 -6 9 -15z m-267 -27
c-3 -8 -6 -5 -6 6 -1 11 2 17 5 13 3 -3 4 -12 1 -19z"/>
<path d="M1908 3043 c6 -2 18 -2 25 0 6 3 1 5 -13 5 -14 0 -19 -2 -12 -5z"/>
<path d="M2261 2004 c0 -11 3 -14 6 -6 3 7 2 16 -1 19 -3 4 -6 -2 -5 -13z"/>
<path d="M843 1918 c-1 -32 1 -38 7 -23 11 26 12 65 2 65 -4 0 -8 -19 -9 -42z"/>
<path d="M2114 1081 c3 -5 22 -9 41 -9 19 0 35 4 35 9 0 5 -18 9 -41 9 -22 0
-38 -4 -35 -9z"/>
<path d="M2288 1083 c6 -2 18 -2 25 0 6 3 1 5 -13 5 -14 0 -19 -2 -12 -5z"/>
<path d="M2168 1053 c23 -2 59 -2 80 0 20 2 1 4 -43 4 -44 0 -61 -2 -37 -4z"/>
<path d="M2298 1053 c7 -3 16 -2 19 1 4 3 -2 6 -13 5 -11 0 -14 -3 -6 -6z"/>
<path d="M2148 1023 c6 -2 18 -2 25 0 6 3 1 5 -13 5 -14 0 -19 -2 -12 -5z"/>
<path d="M2197 956 c-11 -27 -9 -32 13 -33 23 -2 25 6 7 31 -13 18 -14 18 -20
2z"/>
<path d="M2284 951 c4 -5 0 -12 -6 -14 -7 -3 1 -5 17 -5 17 0 24 2 17 5 -6 2
-10 9 -6 14 3 5 -2 9 -11 9 -9 0 -14 -4 -11 -9z"/>
<path d="M2350 945 c0 -9 9 -15 25 -15 16 0 25 6 25 15 0 9 -9 15 -25 15 -16
0 -25 -6 -25 -15z"/>
<path d="M2092 845 c-1 -20 3 -25 22 -25 15 0 26 -7 29 -17 4 -17 5 -17 6 0 1
14 7 16 29 11 21 -4 24 -3 12 5 -12 9 -7 10 23 8 48 -5 50 17 2 33 -39 13 -57
7 -48 -15 3 -8 0 -15 -6 -15 -6 0 -11 9 -11 20 0 15 -7 20 -28 20 -22 0 -28
-5 -30 -25z m105 9 c-3 -3 -12 -4 -19 -1 -8 3 -5 6 6 6 11 1 17 -2 13 -5z"/>
<path d="M2272 852 c4 -22 52 -23 56 -1 2 12 -5 16 -28 17 -24 0 -30 -3 -28
-16z"/>
<path d="M2363 855 c0 -9 9 -15 25 -15 29 0 25 24 -5 28 -12 2 -20 -3 -20 -13z"/>
<path d="M2214 811 c-5 -5 -20 -11 -34 -14 -18 -3 -15 -5 13 -6 23 -1 37 4 37
12 0 6 5 4 11 -5 5 -10 18 -19 27 -20 9 -1 -10 -4 -43 -7 -33 -4 -67 -3 -75 0
-22 10 -60 -8 -60 -27 0 -15 9 -16 77 -11 43 3 79 11 81 16 2 6 8 11 13 11 6
0 7 -4 4 -10 -5 -8 39 -16 68 -11 4 0 7 -7 7 -16 1 -17 2 -17 14 0 17 22 26
23 37 5 7 -10 9 -10 10 2 0 10 3 8 8 -5 7 -17 8 -17 13 8 4 23 0 30 -23 42
-21 11 -29 12 -32 2 -4 -9 -8 -8 -16 3 -10 13 -11 13 -11 0 -1 -9 -6 -6 -16
10 -8 14 -13 17 -10 8 6 -21 -7 -23 -26 -5 -18 18 -62 29 -74 18z"/>
<path d="M2241 727 c2 -1 13 -9 23 -17 16 -12 18 -12 11 -1 -6 11 -1 13 23 9
17 -2 29 -1 26 4 -3 4 -24 8 -46 8 -23 0 -39 -1 -37 -3z"/>
<path d="M2145 710 c3 -5 8 -10 11 -10 2 0 4 5 4 10 0 6 -5 10 -11 10 -5 0 -7
-4 -4 -10z"/>
<path d="M2170 699 c0 -5 5 -7 10 -4 6 3 10 8 10 11 0 2 -4 4 -10 4 -5 0 -10
-5 -10 -11z"/>
<path d="M2215 681 c-45 -5 -47 -7 -20 -13 17 -3 47 -5 68 -3 20 2 37 -1 37
-6 0 -5 4 -9 9 -9 6 0 9 9 8 20 -1 22 -8 22 -102 11z"/>
<path d="M2178 643 c7 -3 16 -2 19 1 4 3 -2 6 -13 5 -11 0 -14 -3 -6 -6z"/>
<path d="M2248 643 c7 -3 16 -2 19 1 4 3 -2 6 -13 5 -11 0 -14 -3 -6 -6z"/>
<path d="M1231 1168 c-1 -16 4 -28 9 -28 12 0 12 8 0 35 -8 18 -9 17 -9 -7z"/>
<path d="M273 3870 c0 -25 2 -35 4 -22 2 12 2 32 0 45 -2 12 -4 2 -4 -23z"/>
<path d="M1675 3902 c-2 -2 -1 -11 2 -20 4 -10 2 -13 -6 -8 -6 4 -19 2 -28 -6
-12 -9 -15 -9 -9 0 4 6 3 12 -3 12 -5 0 -14 -6 -18 -13 -4 -8 -16 -17 -26 -20
-11 -4 -15 -12 -11 -18 4 -8 3 -9 -4 -5 -11 6 -72 -19 -72 -30 0 -2 14 3 31
12 22 11 29 12 23 2 -12 -20 -67 -63 -76 -60 -4 1 -8 -4 -8 -11 0 -8 -9 -22
-19 -31 -10 -10 -24 -37 -30 -61 -6 -24 -16 -47 -22 -50 -17 -11 -28 -49 -17
-62 7 -8 5 -22 -5 -42 -14 -28 -14 -39 2 -113 20 -94 41 -147 72 -186 l21 -27
-6 40 c-10 68 -11 319 -1 337 6 9 35 30 66 46 53 28 56 28 68 11 6 -11 17 -19
24 -19 7 1 5 6 -6 14 -20 15 -12 50 9 42 8 -3 14 -1 14 4 0 6 9 10 19 10 11 0
23 5 26 11 4 6 13 8 21 5 8 -3 13 0 11 7 -1 7 8 12 21 11 14 0 21 4 18 12 -5
14 82 16 91 2 3 -5 16 1 29 13 29 27 58 35 50 13 -3 -8 -2 -12 4 -9 17 10 50
-19 51 -45 0 -22 1 -23 8 -5 7 16 9 14 16 -15 5 -19 9 -42 10 -50 1 -20 44
-108 71 -145 43 -60 115 -219 109 -242 -3 -12 -1 -25 5 -28 5 -3 10 0 10 8 0
8 8 14 18 13 15 -1 17 7 14 57 -4 69 14 71 25 4 l6 -42 9 30 c4 17 5 38 2 48
-3 10 2 27 11 37 14 15 16 28 10 57 -5 21 -7 44 -6 51 1 6 -3 12 -9 12 -8 0
-9 10 -5 29 4 21 2 30 -9 34 -9 4 -16 11 -16 17 0 6 5 8 10 5 13 -8 13 1 -1
26 -8 16 -13 18 -25 8 -8 -6 -17 -9 -21 -5 -3 3 -2 6 4 6 6 0 13 9 16 21 4 16
2 19 -10 15 -13 -5 -14 -4 -3 9 9 11 9 15 1 15 -7 0 -10 4 -7 9 4 5 3 11 -2
13 -4 1 -24 26 -44 54 -37 51 -98 108 -106 99 -3 -2 9 -17 27 -32 17 -15 31
-32 31 -37 0 -5 -11 1 -25 14 -14 13 -25 20 -25 16 0 -4 -8 -2 -18 3 -12 6
-23 7 -30 1 -9 -7 -9 -7 -2 2 12 15 -35 45 -102 65 -26 7 -48 17 -48 21 0 14
55 10 73 -5 9 -9 17 -12 17 -6 0 13 -33 43 -48 43 -7 0 -12 -5 -12 -11 0 -5
-4 -7 -10 -4 -5 3 -18 1 -29 -4 -14 -8 -22 -7 -32 5 -7 9 -23 14 -36 11 -13
-2 -23 -1 -23 2 0 7 -98 10 -105 3z m-5 -70 c0 -4 -9 -8 -20 -9 -11 -1 -18 2
-15 8 7 11 35 12 35 1z m45 -2 c3 -5 -1 -10 -9 -10 -8 0 -18 5 -21 10 -3 6 1
10 9 10 8 0 18 -4 21 -10z m380 -82 c5 4 5 2 1 -5 -3 -6 -1 -13 6 -15 7 -2 36
-28 63 -58 37 -40 41 -58 5 -20 -3 3 -17 13 -32 23 -16 10 -28 22 -28 28 0 5
-12 22 -27 36 -16 14 -21 20 -12 14 9 -6 20 -7 24 -3z m172 -390 c-3 -8 -6 -5
-6 6 -1 11 2 17 5 13 3 -3 4 -12 1 -19z"/>
<path d="M1850 3900 c0 -5 7 -7 15 -4 8 4 15 8 15 10 0 2 -7 4 -15 4 -8 0 -15
-4 -15 -10z"/>
<path d="M2030 3822 c0 -12 19 -26 26 -19 2 2 -2 10 -11 17 -9 8 -15 8 -15 2z"/>
<path d="M72 3765 c0 -16 2 -22 5 -12 2 9 2 23 0 30 -3 6 -5 -1 -5 -18z"/>
<path d="M30 3750 c0 -5 5 -10 11 -10 5 0 7 5 4 10 -3 6 -8 10 -11 10 -2 0 -4
-4 -4 -10z"/>
<path d="M100 3749 c0 -5 5 -7 10 -4 6 3 10 8 10 11 0 2 -4 4 -10 4 -5 0 -10
-5 -10 -11z"/>
<path d="M0 3515 c0 -120 3 -215 6 -212 9 8 8 416 0 424 -3 4 -6 -92 -6 -212z"/>
<path d="M30 3720 c0 -5 5 -10 11 -10 5 0 7 5 4 10 -3 6 -8 10 -11 10 -2 0 -4
-4 -4 -10z"/>
<path d="M73 3655 c0 -44 2 -61 4 -37 2 23 2 59 0 80 -2 20 -4 1 -4 -43z"/>
<path d="M102 3695 c0 -16 2 -22 5 -12 2 9 2 23 0 30 -3 6 -5 -1 -5 -18z"/>
<path d="M132 3695 c0 -16 2 -22 5 -12 2 9 2 23 0 30 -3 6 -5 -1 -5 -18z"/>
<path d="M30 3649 c0 -5 5 -7 10 -4 6 3 10 8 10 11 0 2 -4 4 -10 4 -5 0 -10
-5 -10 -11z"/>
<path d="M142 3620 c0 -19 2 -27 5 -17 2 9 2 25 0 35 -3 9 -5 1 -5 -18z"/>
<path d="M30 3619 c0 -5 5 -7 10 -4 6 3 10 8 10 11 0 2 -4 4 -10 4 -5 0 -10
-5 -10 -11z"/>
<path d="M30 3528 c-1 -210 -11 -769 -15 -808 -4 -32 -2 -41 6 -33 10 10 13
60 17 331 1 52 6 92 12 92 5 0 9 -41 8 -100 0 -56 2 -104 6 -107 7 -8 9 60 7
366 0 129 -3 236 -6 239 -5 6 -10 -228 -6 -319 2 -33 -2 -60 -8 -63 -8 -5 -10
62 -8 233 1 133 -1 241 -5 241 -5 0 -8 -33 -8 -72z"/>
<path d="M160 3570 c0 -5 5 -10 10 -10 6 0 10 5 10 10 0 6 -4 10 -10 10 -5 0
-10 -4 -10 -10z"/>
<path d="M201 3544 c0 -11 3 -14 6 -6 3 7 2 16 -1 19 -3 4 -6 -2 -5 -13z"/>
<path d="M160 3454 c0 -8 5 -12 10 -9 6 4 8 11 5 16 -9 14 -15 11 -15 -7z"/>
<path d="M93 3390 c0 -25 2 -35 4 -22 2 12 2 32 0 45 -2 12 -4 2 -4 -23z"/>
<path d="M161 3414 c0 -11 3 -14 6 -6 3 7 2 16 -1 19 -3 4 -6 -2 -5 -13z"/>
<path d="M162 3370 c0 -14 2 -19 5 -12 2 6 2 18 0 25 -3 6 -5 1 -5 -13z"/>
<path d="M90 3263 c0 -42 2 -74 4 -72 8 8 12 149 4 149 -4 0 -8 -34 -8 -77z"/>
<path d="M120 3329 c0 -5 5 -7 10 -4 6 3 10 8 10 11 0 2 -4 4 -10 4 -5 0 -10
-5 -10 -11z"/>
<path d="M163 3300 c0 -25 2 -35 4 -22 2 12 2 32 0 45 -2 12 -4 2 -4 -23z"/>
<path d="M190 3295 c0 -8 5 -15 10 -15 6 0 10 7 10 15 0 8 -4 15 -10 15 -5 0
-10 -7 -10 -15z"/>
<path d="M232 3245 c0 -16 2 -22 5 -12 2 9 2 23 0 30 -3 6 -5 -1 -5 -18z"/>
<path d="M3 3185 c0 -44 2 -61 4 -37 2 23 2 59 0 80 -2 20 -4 1 -4 -43z"/>
<path d="M201 3234 c0 -11 3 -14 6 -6 3 7 2 16 -1 19 -3 4 -6 -2 -5 -13z"/>
<path d="M2272 3183 c-17 -56 -55 -79 -79 -47 -14 19 -22 7 -28 -41 -3 -20 -1
-35 5 -35 7 0 7 -6 0 -19 -5 -11 -10 -34 -10 -50 l0 -31 43 31 c49 36 66 62
67 105 0 16 5 35 11 41 6 6 9 28 7 49 l-3 39 -13 -42z"/>
<path d="M120 3090 c0 -60 4 -100 10 -100 6 0 10 40 10 100 0 60 -4 100 -10
100 -6 0 -10 -40 -10 -100z"/>
<path d="M91 3093 c-1 -43 3 -73 9 -73 12 0 12 97 0 125 -6 14 -9 -3 -9 -52z"/>
<path d="M1476 3125 c2 -22 5 -50 5 -62 1 -13 5 -21 9 -18 5 3 10 -1 13 -7 2
-7 6 -11 9 -8 2 3 -6 34 -19 70 -19 55 -22 59 -17 25z"/>
<path d="M159 3078 c0 -29 -2 -76 -5 -103 -2 -28 1 -64 5 -80 7 -21 10 8 10
103 1 72 -1 132 -4 132 -3 0 -5 -24 -6 -52z"/>
<path d="M193 2980 c0 -41 2 -58 4 -37 2 20 2 54 0 75 -2 20 -4 3 -4 -38z"/>
<path d="M1480 3024 c0 -2 9 -8 20 -14 11 -6 20 -7 20 -2 0 6 -9 12 -20 15
-11 3 -20 3 -20 1z"/>
<path d="M90 2958 c0 -49 5 -47 13 5 3 20 2 37 -4 37 -5 0 -9 -19 -9 -42z"/>
<path d="M127 2973 c-8 -17 -8 -213 0 -213 4 0 9 50 11 110 3 100 0 124 -11
103z"/>
<path d="M2161 2906 c2 -25 3 -46 3 -46 1 0 13 13 28 29 24 25 25 28 8 24 -14
-4 -20 0 -20 10 0 9 -5 19 -11 22 -6 5 -9 -9 -8 -39z"/>
<path d="M89 2873 c0 -16 -2 -54 -3 -86 -2 -32 1 -60 5 -63 5 -3 9 36 9 85 0
50 -2 91 -5 91 -3 0 -5 -12 -6 -27z"/>
<path d="M50 2702 c0 -95 4 -172 8 -172 9 0 8 328 -2 337 -3 4 -6 -71 -6 -165z"/>
<path d="M161 2834 c0 -11 3 -14 6 -6 3 7 2 16 -1 19 -3 4 -6 -2 -5 -13z"/>
<path d="M193 2810 c0 -25 2 -35 4 -22 2 12 2 32 0 45 -2 12 -4 2 -4 -23z"/>
<path d="M154 2776 c-3 -8 -1 -23 5 -33 9 -15 10 -13 11 15 0 34 -7 42 -16 18z"/>
<path d="M191 2744 c0 -11 3 -14 6 -6 3 7 2 16 -1 19 -3 4 -6 -2 -5 -13z"/>
<path d="M255 2740 c-3 -5 -1 -10 4 -10 6 0 11 5 11 10 0 6 -2 10 -4 10 -3 0
-8 -4 -11 -10z"/>
<path d="M220 2716 c0 -9 5 -16 10 -16 6 0 10 4 10 9 0 6 -4 13 -10 16 -5 3
-10 -1 -10 -9z"/>
<path d="M152 2595 l2 -120 6 105 c3 58 2 112 -2 120 -4 8 -7 -39 -6 -105z"/>
<path d="M193 2665 c0 -22 2 -30 4 -17 2 12 2 30 0 40 -3 9 -5 -1 -4 -23z"/>
<path d="M250 2670 c0 -11 5 -20 10 -20 6 0 10 9 10 20 0 11 -4 20 -10 20 -5
0 -10 -9 -10 -20z"/>
<path d="M291 2644 c0 -11 3 -14 6 -6 3 7 2 16 -1 19 -3 4 -6 -2 -5 -13z"/>
<path d="M1576 2621 c-19 -21 -12 -28 13 -12 7 5 12 14 9 21 -2 7 -10 4 -22
-9z"/>
<path d="M18 2585 c-2 -25 0 -45 4 -45 5 0 8 20 8 45 0 25 -2 45 -4 45 -2 0
-6 -20 -8 -45z"/>
<path d="M185 2510 c0 -61 3 -110 7 -110 5 0 8 50 8 110 0 61 -3 110 -7 110
-5 0 -8 -50 -8 -110z"/>
<path d="M223 2470 c0 -47 2 -66 4 -42 2 23 2 61 0 85 -2 23 -4 4 -4 -43z"/>
<path d="M293 2500 c0 -30 2 -43 4 -27 2 15 2 39 0 55 -2 15 -4 2 -4 -28z"/>
<path d="M322 2525 c0 -16 2 -22 5 -12 2 9 2 23 0 30 -3 6 -5 -1 -5 -18z"/>
<path d="M15 2510 c-3 -5 -1 -10 4 -10 6 0 11 5 11 10 0 6 -2 10 -4 10 -3 0
-8 -4 -11 -10z"/>
<path d="M50 2505 c0 -8 5 -15 10 -15 6 0 10 7 10 15 0 8 -4 15 -10 15 -5 0
-10 -7 -10 -15z"/>
<path d="M53 2447 c-1 -30 -1 -31 8 -8 5 14 6 28 2 32 -4 4 -9 -6 -10 -24z"/>
<path d="M322 2380 c0 -81 2 -99 10 -78 6 18 6 55 0 105 l-9 78 -1 -105z"/>
<path d="M148 2369 c-2 -57 0 -147 3 -199 l5 -95 4 80 c4 114 4 112 13 121 4
4 7 -59 7 -139 0 -91 4 -147 10 -147 6 0 10 73 10 200 0 127 -4 200 -10 200
-5 0 -10 -22 -10 -50 0 -29 -5 -50 -11 -50 -7 0 -9 27 -6 80 2 43 0 85 -4 91
-4 7 -9 -34 -11 -92z"/>
<path d="M1681 2410 c0 -19 48 -75 57 -66 3 4 0 11 -8 16 -11 7 -11 11 -1 24
11 13 16 14 29 4 13 -12 14 -10 2 9 -11 17 -18 19 -32 12 -10 -5 -18 -15 -18
-22 -1 -7 -7 -1 -15 13 -8 15 -14 19 -14 10z"/>
<path d="M11 2285 c1 -65 4 -91 9 -75 11 36 11 142 0 160 -7 10 -9 -17 -9 -85z"/>
<path d="M220 2370 c0 -5 5 -10 10 -10 6 0 10 5 10 10 0 6 -4 10 -10 10 -5 0
-10 -4 -10 -10z"/>
<path d="M361 2353 c-1 -17 -4 -38 -7 -47 -3 -9 -1 -16 4 -16 16 0 23 32 13
65 l-9 30 -1 -32z"/>
<path d="M219 2323 c-3 -60 0 -326 5 -330 3 -3 6 72 8 167 2 94 0 174 -4 177
-5 2 -8 -4 -9 -14z"/>
<path d="M1740 2325 c0 -5 5 -17 10 -25 5 -8 10 -10 10 -5 0 6 -5 17 -10 25
-5 8 -10 11 -10 5z"/>
<path d="M920 2194 c0 -8 5 -12 10 -9 6 4 8 11 5 16 -9 14 -15 11 -15 -7z"/>
<path d="M9 2028 c0 -79 -2 -215 -5 -303 -2 -88 0 -173 5 -190 10 -33 10 -48
14 383 1 138 -1 252 -5 252 -5 0 -8 -64 -9 -142z"/>
<path d="M2065 1739 c-4 -12 -3 -25 2 -29 4 -5 8 4 9 21 1 34 -2 37 -11 8z"/>
<path d="M2040 1692 c0 -11 22 -32 32 -32 5 0 4 9 -2 20 -11 20 -30 28 -30 12z"/>
</g>
</svg>
